HIERARCHY
ROOT Hips
{
	OFFSET 0.00000 0.00000 0.00000
	CHANNELS 6 Xposition Yposition Zposition Zrotation Yrotation Xrotation 
	JOINT LHipJoint
	{
		OFFSET 0 0 0
		CHANNELS 3 Zrotation Yrotation Xrotation
		JOINT LeftUpLeg
		{
			OFFSET 1.37959 -1.78713 0.86582
			CHANNELS 3 Zrotation Yrotation Xrotation
			JOINT LeftLeg
			{
				OFFSET 2.54611 -6.99539 0.00000
				CHANNELS 3 Zrotation Yrotation Xrotation
				JOINT LeftFoot
				{
					OFFSET 2.59951 -7.14211 0.00000
					CHANNELS 3 Zrotation Yrotation Xrotation
					JOINT LeftToeBase
					{
						OFFSET 0.18493 -0.50810 1.96120
						CHANNELS 3 Zrotation Yrotation Xrotation
						End Site
						{
							OFFSET 0.00000 -0.00000 1.02054
						}
					}
				}
			}
		}
	}
	JOINT RHipJoint
	{
		OFFSET 0 0 0
		CHANNELS 3 Zrotation Yrotation Xrotation
		JOINT RightUpLeg
		{
			OFFSET -1.33564 -1.78713 0.86582
			CHANNELS 3 Zrotation Yrotation Xrotation
			JOINT RightLeg
			{
				OFFSET -2.52705 -6.94302 0.00000
				CHANNELS 3 Zrotation Yrotation Xrotation
				JOINT RightFoot
				{
					OFFSET -2.55964 -7.03257 0.00000
					CHANNELS 3 Zrotation Yrotation Xrotation
					JOINT RightToeBase
					{
						OFFSET -0.25804 -0.70896 2.12109
						CHANNELS 3 Zrotation Yrotation Xrotation
						End Site
						{
							OFFSET -0.00000 -0.00000 1.11821
						}
					}
				}
			}
		}
	}
	JOINT LowerBack
	{
		OFFSET 0 0 0
		CHANNELS 3 Zrotation Yrotation Xrotation
		JOINT Spine
		{
			OFFSET -0.02031 2.24248 -0.18900
			CHANNELS 3 Zrotation Yrotation Xrotation
			JOINT Spine1
			{
				OFFSET 0.08342 2.24689 -0.03799
				CHANNELS 3 Zrotation Yrotation Xrotation
				JOINT Neck
				{
					OFFSET 0 0 0
					CHANNELS 3 Zrotation Yrotation Xrotation
					JOINT Neck1
					{
						OFFSET -0.11607 1.55844 0.24628
						CHANNELS 3 Zrotation Yrotation Xrotation
						JOINT Head
						{
							OFFSET 0.06877 1.60174 -0.17013
							CHANNELS 3 Zrotation Yrotation Xrotation
							End Site
							{
								OFFSET 0.03358 1.61266 -0.08543
							}
						}
					}
				}
				JOINT LeftShoulder
				{
					OFFSET 0 0 0
					CHANNELS 3 Zrotation Yrotation Xrotation
					JOINT LeftArm
					{
						OFFSET 3.47537 0.55866 -0.72348
						CHANNELS 3 Zrotation Yrotation Xrotation
						JOINT LeftForeArm
						{
							OFFSET 5.38154 -0.00000 0.00000
							CHANNELS 3 Zrotation Yrotation Xrotation
							JOINT LeftHand
							{
								OFFSET 3.33312 -0.00000 0.00000
								CHANNELS 3 Zrotation Yrotation Xrotation
								JOINT LeftFingerBase
								{
									OFFSET 0 0 0
									CHANNELS 3 Zrotation Yrotation Xrotation
									JOINT LeftHandIndex1
									{
										OFFSET 0.71079 -0.00000 0.00000
										CHANNELS 3 Zrotation Yrotation Xrotation
										End Site
										{
											OFFSET 0.57306 -0.00000 0.00000
										}
									}
								}
								JOINT LThumb
								{
									OFFSET 0 0 0
									CHANNELS 3 Zrotation Yrotation Xrotation
									End Site
									{
										OFFSET 0.58181 -0.00000 0.58181
									}
								}
							}
						}
					}
				}
				JOINT RightShoulder
				{
					OFFSET 0 0 0
					CHANNELS 3 Zrotation Yrotation Xrotation
					JOINT RightArm
					{
						OFFSET -3.27844 0.90739 -0.35708
						CHANNELS 3 Zrotation Yrotation Xrotation
						JOINT RightForeArm
						{
							OFFSET -5.16954 -0.00000 0.00000
							CHANNELS 3 Zrotation Yrotation Xrotation
							JOINT RightHand
							{
								OFFSET -3.38287 -0.00000 0.00000
								CHANNELS 3 Zrotation Yrotation Xrotation
								JOINT RightFingerBase
								{
									OFFSET 0 0 0
									CHANNELS 3 Zrotation Yrotation Xrotation
									JOINT RightHandIndex1
									{
										OFFSET -0.81797 -0.00000 0.00000
										CHANNELS 3 Zrotation Yrotation Xrotation
										End Site
										{
											OFFSET -0.65947 -0.00000 0.00000
										}
									}
								}
								JOINT RThumb
								{
									OFFSET 0 0 0
									CHANNELS 3 Zrotation Yrotation Xrotation
									End Site
									{
										OFFSET -0.66953 -0.00000 0.66953
									}
								}
							}
						}
					}
				}
			}
		}
	}
}
MOTION
Frames: 8
Frame Time: .0083333
3.5588 17.3096 2.2230 -10.0128 -11.2549 3.3998 0.0000 0.0000 0.0000 -1.6684 -10.3008 -35.8960 2.2456 9.3599 26.9276 1.1229 -3.7332 -19.1348 1.1375 -6.7731 -19.0449 0.0000 0.0000 0.0000 32.5630 -1.8708 23.1520 0.0000 0.0000 -0.0000 0.0414 8.0432 -4.7284 -0.0938 1.9749 -5.4362 10.3673 4.6284 0.7615 3.9573 6.2555 -0.1396 -1.6591 3.1048 0.0845 -8.9999 -3.3172 -17.7555 5.5840 -3.3945 20.3360 2.9832 -1.6499 9.6228 0.0000 0.0000 0.0000 -93.5747 13.6909 -5.2367 9.2322 -15.5297 -1.2616 -0.0000 -0.0000 22.6602 -6.5714 40.8196 -4.3064 -7.1250 0.0000 -0.0000 -52.1858 63.1200 -26.4913 0.0000 0.0000 0.0000 85.4825 28.4498 17.5784 -23.6396 34.7808 -7.5000 0.0000 -0.0000 -24.6298 -19.5919 18.9370 -6.5889 7.1250 -0.0000 -0.0000 5.5898 -10.0446 4.5515
3.5780 17.3038 2.4394 -9.9353 -11.4937 3.6497 0.0000 0.0000 0.0000 -2.0411 -9.8986 -35.4884 2.2491 9.3668 26.9495 1.0284 -4.9403 -18.1540 1.1981 -6.9451 -19.5529 0.0000 0.0000 0.0000 32.2215 -1.7611 23.6159 0.0000 0.0000 -0.0000 0.0651 7.8485 -3.9757 -0.1609 2.5845 -7.1240 10.2565 4.6859 0.4097 3.9566 6.2944 -0.2807 -1.5753 3.1222 0.1269 -8.9167 -3.2779 -17.9153 5.4128 -3.3132 20.5273 2.9219 -1.6250 9.7088 -0.0000 -0.0000 0.0000 -93.8457 14.3445 -6.9820 8.9606 -15.0977 -1.1898 -0.0000 -0.0000 23.8392 -5.7936 40.6179 -3.7791 -7.1250 0.0000 -0.0000 -51.1931 63.2017 -25.9416 -0.0000 -0.0000 0.0000 85.5222 28.4055 17.4827 -23.6547 34.7970 -7.5086 0.0000 -0.0000 -24.5649 -19.3811 19.3077 -6.6345 7.1250 -0.0000 -0.0000 5.7494 -9.6870 4.7245
3.5906 17.3013 2.6542 -9.6213 -11.6490 3.8549 0.0000 0.0000 0.0000 -2.5853 -9.7448 -34.9256 2.2315 9.3325 26.8409 0.9786 -5.9146 -17.6531 0.9132 -6.0890 -17.0428 0.0000 0.0000 0.0000 31.6537 -1.7536 24.0818 0.0000 0.0000 -0.0000 0.0875 7.5534 -3.0450 -0.2039 2.9077 -8.0218 9.8427 4.7587 0.0265 3.9009 6.3533 -0.4467 -1.3844 3.1490 0.1370 -8.9153 -3.3080 -17.7485 5.1162 -3.3074 20.8031 2.8219 -1.6615 9.7709 -0.0000 0.0000 0.0000 -93.9789 14.9174 -9.2951 8.6205 -14.5536 -1.1028 -0.0000 -0.0000 25.4250 -5.8281 39.5579 -3.7193 -7.1250 0.0000 -0.0000 -49.7042 62.4894 -24.1739 -0.0000 0.0000 0.0000 85.4052 28.1630 17.5116 -23.8321 34.9862 -7.6101 0.0000 -0.0000 -24.7182 -19.4843 19.4006 -6.7030 7.1250 -0.0000 -0.0000 5.6884 -9.5768 4.6865
3.6104 17.3021 2.8733 -8.8309 -11.8854 3.6569 0.0000 0.0000 0.0000 -3.6062 -10.1252 -33.7851 2.2324 9.3343 26.8467 0.9818 -5.8542 -17.6837 0.6655 -5.2173 -14.5293 0.0000 0.0000 0.0000 30.5220 -1.8445 24.8529 0.0000 0.0000 0.0000 0.1081 7.2390 -1.9472 -0.2463 3.1933 -8.8175 9.2763 4.9644 -0.0605 3.5675 6.6181 -0.4674 -1.4083 3.2841 0.1669 -9.1170 -3.4629 -17.4513 5.2201 -3.5193 20.7715 2.8638 -1.7675 9.7278 0.0000 0.0000 0.0000 -93.8604 15.4063 -10.8386 8.5195 -14.3914 -1.0776 -0.0000 -0.0000 26.3828 -6.1807 39.2146 -3.9167 -7.1250 0.0000 -0.0000 -49.5489 62.1648 -23.7042 0.0000 0.0000 0.0000 85.3365 27.9597 16.9317 -24.1125 35.2830 -7.7714 0.0000 -0.0000 -24.6756 -19.5258 19.3070 -6.6874 7.1250 -0.0000 -0.0000 5.6557 -9.6685 4.6488
3.6343 17.3173 3.0968 -8.0618 -12.0860 3.4450 0.0000 0.0000 0.0000 -4.8955 -9.9195 -32.9337 2.2615 9.3907 27.0252 0.9080 -5.5375 -17.0017 0.6542 -5.1734 -14.4037 0.0000 0.0000 0.0000 29.4106 -1.9427 25.5611 0.0000 0.0000 -0.0000 0.1203 6.7907 -0.6172 -0.2870 3.4454 -9.5212 8.7441 5.1325 -0.2547 3.2596 6.8109 -0.3565 -1.4062 3.3927 0.3860 -9.3315 -3.5432 -17.6340 5.6345 -3.6532 20.7605 3.0268 -1.7968 9.7804 0.0000 0.0000 0.0000 -93.7681 15.4455 -12.6333 8.3336 -14.0922 -1.0318 -0.0000 -0.0000 27.7010 -6.3994 39.9304 -4.1175 -7.1250 0.0000 -0.0000 -50.7435 62.5857 -24.9350 0.0000 0.0000 0.0000 85.2333 28.0164 16.4153 -24.2243 35.4006 -7.8361 0.0000 -0.0000 -24.5648 -19.3869 19.1639 -6.5895 7.1250 -0.0000 -0.0000 5.7368 -9.8356 4.6968
3.6548 17.3542 3.3193 -7.8120 -12.3331 3.4917 0.0000 0.0000 0.0000 -5.6728 -9.1315 -32.6991 2.2991 9.4631 27.2549 0.7380 -5.0972 -15.3105 0.7097 -5.3841 -15.0075 0.0000 0.0000 0.0000 29.1435 -1.3124 24.2079 -0.0422 -1.3252 3.6441 0.1226 6.9740 -0.8644 -0.2915 3.4720 -9.5958 8.3978 5.1297 -0.6329 3.2451 6.7626 -0.3232 -1.1981 3.3767 0.5906 -9.3229 -3.4207 -17.6227 5.7305 -3.5089 20.7613 3.0799 -1.7187 9.7674 0.0000 -0.0000 0.0000 -94.0503 15.7809 -14.3190 8.2184 -13.9063 -1.0040 -0.0000 -0.0000 28.4830 -6.5542 40.8260 -4.2956 -7.1250 0.0000 -0.0000 -52.1801 63.1288 -26.4980 0.0000 -0.0000 0.0000 85.2441 27.9161 16.7058 -24.3145 35.4950 -7.8884 0.0000 -0.0000 -24.7325 -19.4293 19.3670 -6.6717 7.1250 -0.0000 -0.0000 5.7219 -9.6190 4.7095
3.6783 17.3887 3.5465 -7.9100 -12.5115 3.5734 0.0000 0.0000 0.0000 -5.8818 -8.7887 -32.4484 2.3148 9.4932 27.3505 0.5854 -4.0847 -13.6421 0.6935 -5.3235 -14.8335 0.0000 0.0000 0.0000 29.1742 -0.7781 22.9933 -0.1562 -2.5467 7.0191 0.1334 7.1661 -0.6834 -0.2108 2.9560 -8.1562 8.4154 5.0652 -0.9679 3.3600 6.6377 -0.3390 -1.0631 3.3182 0.7396 -9.3509 -3.2788 -17.4800 5.7158 -3.3129 20.7448 3.1070 -1.6337 9.7186 -0.0000 0.0000 0.0000 -94.5438 16.4972 -15.2750 8.2846 -14.0131 -1.0199 -0.0000 -0.0000 28.6056 -6.2011 41.2158 -4.0949 -7.1250 0.0000 -0.0000 -52.4496 63.4762 -27.0874 -0.0000 0.0000 0.0000 85.3469 27.6333 17.0003 -24.4492 35.6357 -7.9668 0.0000 -0.0000 -24.8301 -19.4117 19.9024 -6.8405 7.1250 -0.0000 -0.0000 5.7674 -9.0656 4.8117
3.7009 17.4050 3.7673 -7.6305 -12.3244 3.5500 0.0000 0.0000 0.0000 -6.5294 -8.6840 -32.0598 2.2922 9.4498 27.2128 0.4419 -3.4170 -11.8521 0.7463 -5.5182 -15.3927 0.0000 0.0000 0.0000 28.8309 -0.6578 21.8105 -0.3213 -3.6437 10.0762 0.1452 7.1609 0.0408 -0.1222 2.2540 -6.2082 8.1938 4.9203 -1.0677 3.2814 6.4512 -0.5277 -1.0344 3.2164 0.5696 -9.2644 -3.1853 -17.4397 5.5942 -3.1902 21.0378 3.0712 -1.5880 9.8007 -0.0000 -0.0000 0.0000 -94.7123 17.2358 -15.9101 8.2446 -13.9486 -1.0103 -0.0000 -0.0000 28.6199 -5.2738 41.3145 -3.4873 -7.1250 0.0000 -0.0000 -51.7735 63.7974 -27.0156 -0.0000 -0.0000 0.0000 85.5115 27.1524 17.2157 -24.5519 35.7424 -8.0267 0.0000 -0.0000 -24.9135 -19.3639 20.0440 -6.8685 7.1250 -0.0000 -0.0000 5.8074 -8.9253 4.8618
